<?xml version="1.0" encoding="utf-8"?>
<!-- Svg Vector Icons : http://www.onlinewebfonts.com/icon -->
<!DOCTYPE svg PUBLIC "-//W3C//DTD SVG 1.1//EN" "http://www.w3.org/Graphics/SVG/1.1/DTD/svg11.dtd">
<svg version="1.1" xmlns="http://www.w3.org/2000/svg" xmlns:xlink="http://www.w3.org/1999/xlink" x="0px" y="0px" viewBox="0 0 1000 1000" enable-background="new 0 0 1000 1000" xml:space="preserve">
<metadata> Svg Vector Icons : http://www.onlinewebfonts.com/icon </metadata>
<g><g transform="translate(0.000000,512.000000) scale(0.100000,-0.100000)"><path d="M3549.1,4992.4c-360.8-78.7-621.7-328.1-683.1-658.2c-11.5-63.3-19.2-690.8-19.2-1634.9c0-844.3-5.8-1533.2-11.5-1533.2c-5.8,0-38.4,21.1-74.8,48c-138.2,107.5-378,159.3-566.1,124.7c-320.5-57.6-558.4-268.7-675.5-594.9l-44.1-124.7v-1113c0-1228.1-1.9-1207,122.8-1477.6c51.8-111.3,97.9-176.5,168.9-239.9c51.8-48,337.7-247.5,635.2-447.1c297.4-197.6,545-368.4,552.7-379.9c5.8-11.5-23-49.9-65.2-84.4c-40.3-36.5-95.9-111.3-120.9-167c-44.1-95.9-46.1-126.6-51.8-539.2c-7.7-495.1,7.7-600.6,97.9-736.9c74.8-111.3,174.6-170.8,339.7-197.6c86.4-13.4,806-19.2,2333.4-15.4l2206.8,5.8l113.2,57.6c97.9,49.9,122.8,72.9,168.9,163.1c76.8,151.6,95.9,314.7,86.3,746.5c-7.7,332-13.4,389.5-51.8,485.5c-51.8,134.3-178.5,253.3-307,291.7c-101.7,28.8-113.2,53.7-76.8,178.5c36.5,132.4,145.8,253.3,418.3,464.4c266.7,207.3,358.8,303.2,427.9,441.4l44.1,88.3L8523-254c5.8,1458.4,1.9,1611.9-26.9,1707.8c-130.5,427.9-481.7,685.1-840.5,614.1c-63.3-13.4-140.1-34.5-168.9-49.9c-51.8-26.9-57.6-23-172.7,71c-149.7,120.9-427.9,257.1-587.2,287.8s-424.1,11.5-568-38.4l-113.2-40.3l-97.9,107.5c-161.2,182.3-347.3,278.2-589.1,305.1c-182.3,21.1-380-21.1-644.8-138.2c-19.2-7.7-24.9,163.1-24.9,823.2c0,518.1-7.7,876.9-21.1,946c-61.4,332-314.7,575.7-679.3,652.4C3823.5,5028.9,3719.9,5028.9,3549.1,4992.4z M4103.7,4662.4c117.1-53.7,172.7-103.6,226.4-205.3l42.2-76.8l5.7-1980.4l3.8-1982.3h76.8h76.8v767.6c0,422.2,5.8,767.6,15.3,767.6c7.7,0,51.8,61.4,97.9,136.3c99.8,161.2,191.9,234.1,362.7,285.9c366.5,113.2,650.5-3.8,827.1-343.5l78.7-151.6v-731.1V417.7h76.8h76.8v784.8v786.8l111.3,40.3c358.8,136.2,708.1,55.6,1015.1-236l101.7-95.9v-639V417.7h76.8h76.8v619.8v617.9l69.1,44.1c224.5,145.8,452.9,124.7,581.5-55.6c119-163.1,117-119,117-1857.5c0-1521.7-1.9-1587-36.5-1644.5c-38.4-63.3-107.5-124.7-416.4-370.4c-322.4-255.2-431.8-431.8-445.2-717.7l-7.7-167H5404.7H3495.4L3372.6-3000c-168.9,157.3-332,276.3-915.3,662c-466.3,309-506.6,339.7-564.2,435.6c-120.9,203.4-122.8,220.7-117,1450.7l5.8,1109.1l53.7,109.4c94,190,257.1,284,493.2,284c163.1,0,274.4-46.1,370.4-153.5c120.9-134.3,147.8-245.6,147.8-610.2V-4.5h153.5h153.5v2156.9c0,2320-3.8,2241.3,95.9,2368c115.1,145.8,268.7,197.7,556.5,190C3965.5,4706.5,4026.9,4695,4103.7,4662.4z M7450.3-3284c176.5-15.4,203.4-23,249.5-67.2l49.9-49.9l5.8-464.4c3.8-310.9-1.9-479.7-15.3-514.3c-46.1-109.4,51.8-105.5-2214.5-111.3c-1203.2-1.9-2158.8,1.9-2252.8,13.4c-136.2,13.4-170.8,24.9-213,67.2l-49.9,49.9l-5.8,397.2c-7.7,452.9,0,543.1,61.4,614.1c38.4,46.1,61.4,51.8,224.5,63.3C3554.9-3266.7,7216.2-3264.8,7450.3-3284z"/></g></g>
</svg>